<svg width="60" height="60" viewBox="0 0 60 60" fill="none" xmlns="http://www.w3.org/2000/svg">
<path d="M34.544 39H24.2L30.032 32.256C31.024 31.088 31.648 30.312 31.904 29.928C32.496 29.08 32.792 28.264 32.792 27.48C32.792 26.568 32.496 25.824 31.904 25.248C31.312 24.656 30.544 24.36 29.6 24.36C28.448 24.36 27.56 24.832 26.936 25.776C26.6 26.288 26.424 26.92 26.408 27.672H24.632C24.696 26.312 25.096 25.208 25.832 24.36C26.792 23.272 28.056 22.728 29.624 22.728C31.048 22.728 32.224 23.184 33.152 24.096C34.096 24.992 34.568 26.128 34.568 27.504C34.568 28.576 34.144 29.72 33.296 30.936C32.864 31.528 32.136 32.416 31.112 33.6L27.776 37.368H34.544V39Z" fill="#5D71DD"/>
<circle cx="30" cy="30" r="29.5" stroke="#5D71DD"/>
</svg>
