<svg width="60" height="60" viewBox="0 0 60 60" fill="none" xmlns="http://www.w3.org/2000/svg">
<path d="M26.84 26.952H25.064C25.112 26.104 25.36 25.32 25.808 24.6C26.608 23.352 27.848 22.728 29.528 22.728C30.952 22.728 32.056 23.152 32.84 24C33.64 24.848 34.04 25.864 34.04 27.048C34.04 28.728 33.352 29.912 31.976 30.6C32.184 30.68 32.384 30.792 32.576 30.936C32.784 31.064 33.032 31.272 33.32 31.56C33.608 31.848 33.84 32.248 34.016 32.76C34.192 33.256 34.28 33.824 34.28 34.464C34.28 35.92 33.808 37.088 32.864 37.968C31.936 38.848 30.768 39.288 29.36 39.288C28.416 39.288 27.536 39.072 26.72 38.64C25.904 38.192 25.296 37.488 24.896 36.528C24.688 36.016 24.568 35.456 24.536 34.848H26.312C26.392 35.504 26.584 36.04 26.888 36.456C27.432 37.256 28.256 37.656 29.36 37.656C30.24 37.656 30.984 37.344 31.592 36.72C32.2 36.08 32.504 35.312 32.504 34.416C32.504 33.104 31.976 32.208 30.92 31.728C30.392 31.472 29.784 31.36 29.096 31.392V29.808C29.784 29.856 30.392 29.744 30.92 29.472C31.816 29.008 32.264 28.216 32.264 27.096C32.264 26.312 32.04 25.664 31.592 25.152C31.144 24.624 30.456 24.36 29.528 24.36C28.632 24.36 27.944 24.664 27.464 25.272C27.096 25.752 26.888 26.312 26.84 26.952Z" fill="#5D71DD"/>
<circle cx="30" cy="30" r="29.5" stroke="#5D71DD"/>
</svg>
