<svg width="60" height="60" viewBox="0 0 60 60" fill="none" xmlns="http://www.w3.org/2000/svg">
<path d="M34.496 22.992V24.624H29.36L28.328 28.08C28.6 28.016 28.936 27.984 29.336 27.984C30.92 27.984 32.192 28.512 33.152 29.568C34.128 30.624 34.616 31.944 34.616 33.528C34.616 35.256 34.048 36.648 32.912 37.704C31.792 38.76 30.416 39.288 28.784 39.288C27.408 39.288 26.216 38.872 25.208 38.04C24.632 37.544 24.168 37 23.816 36.408L25.232 35.4C25.472 35.88 25.832 36.312 26.312 36.696C27.096 37.336 27.96 37.656 28.904 37.656C30.024 37.656 30.96 37.256 31.712 36.456C32.464 35.656 32.84 34.688 32.84 33.552C32.84 32.4 32.464 31.456 31.712 30.72C30.976 29.984 30.04 29.616 28.904 29.616C27.896 29.616 26.864 29.984 25.808 30.72L28.136 22.992H34.496Z" fill="#5D71DD"/>
<circle cx="30" cy="30" r="29.5" stroke="#5D71DD"/>
</svg>
