<svg width="198" height="268" viewBox="0 0 198 268" fill="none" xmlns="http://www.w3.org/2000/svg">
<ellipse cx="99" cy="216.5" rx="99" ry="51.5" fill="url(#paint0_radial)" fill-opacity="0.5"/>
<g clip-path="url(#clip0)">
<path d="M90.2131 62.5786C87.1973 37.5173 95.7684 22.8106 104.657 17.2581C110.53 13.6565 117.196 13.5064 123.069 16.8079C133.703 22.8106 139.1 39.168 137.354 60.3275L134.338 60.0274C136.084 39.9183 131.323 24.6114 121.64 19.209C116.879 16.5078 111.482 16.6578 106.562 19.6592C98.308 24.6114 90.6892 38.4177 93.3875 62.1283L90.2131 62.5786Z" fill="url(#paint1_linear)"/>
<path d="M75.1778 189.9L80.4157 219.764L77.8761 199.805L75.1778 189.9Z" fill="url(#paint2_linear)"/>
<path d="M46.0885 58.8269L168.465 55.0752L163.385 56.4258L184.178 57.0261L70.532 60.9278L46.0885 58.8269Z" fill="#990000"/>
<path d="M46.0885 58.8269L168.465 55.0752L163.385 56.4258L184.178 57.0261L70.532 60.9278L46.0885 58.8269Z" fill="#BEB2FF"/>
<path d="M46.0885 59.2769V58.5266L168.465 54.7749V55.5252L46.0885 59.2769Z" fill="#E6E2FF"/>
<path d="M77.9915 200.34L75.2932 190.436L75.7694 160.422C76.8804 180.381 77.9915 200.34 77.9915 200.34Z" fill="#EB2323"/>
<path d="M77.9915 200.34L75.2932 190.436L75.7694 160.422C76.8804 180.381 77.9915 200.34 77.9915 200.34Z" fill="url(#paint3_linear)"/>
<path d="M187.194 208.744C187.194 208.744 187.194 209.194 185.448 209.495C183.702 209.945 85.7692 236.357 84.0232 236.807C83.0709 236.957 82.5947 237.107 82.2772 236.657C81.9598 236.207 81.9598 235.306 81.8011 233.655C81.6423 232.155 81.0075 226.902 80.3726 220.9C80.3726 220.9 80.3726 220.75 80.3726 220.6C80.3726 220.449 80.3726 220.449 80.3726 220.299C80.3726 220.149 80.3726 219.999 80.3726 219.999C79.4202 211.445 78.1504 201.841 77.9917 200.49C77.9917 200.49 139.894 186.384 186.083 176.33C186.083 177.98 187.194 208.744 187.194 208.744Z" fill="#CCD3D9"/>
<g filter="url(#filter0_i)">
<path d="M187.193 208.744C187.193 208.744 187.193 209.194 185.448 209.495C183.702 209.945 85.769 236.357 84.023 236.807C83.0707 236.957 82.5945 237.107 82.277 236.657C81.9596 236.207 81.9596 235.306 81.8009 233.655C81.6421 232.155 81.0073 226.902 80.3724 220.9C80.3724 220.9 80.3724 220.75 80.3724 220.6C80.3724 220.449 80.3724 220.449 80.3724 220.299C80.3724 220.149 80.3724 219.999 80.3724 219.999C79.42 211.445 78.1502 201.841 77.9915 200.49C77.9915 200.49 139.894 186.384 186.082 176.33C186.082 177.98 187.193 208.744 187.193 208.744Z" fill="url(#paint4_linear)"/>
</g>
<g filter="url(#filter1_i)">
<path d="M75.7383 160.279C75.1034 148.273 74.3098 136.268 73.9924 128.614C72.8813 108.055 70.5004 61.0841 70.5004 61.0841C70.5004 61.0841 72.0877 61.2341 74.1511 61.0841C75.4209 61.0841 117.641 59.4333 149.227 58.3828C168.592 57.6325 184.147 57.0322 184.147 57.0322C184.147 57.0322 186.051 174.685 186.051 176.336C139.863 186.24 77.9605 200.497 77.9605 200.497C77.9605 200.497 76.8494 180.388 75.7383 160.279Z" fill="url(#paint5_linear)"/>
</g>
<path d="M106.244 67.2305C105.292 67.2305 104.498 68.2809 104.657 69.4815C104.657 70.682 105.451 71.5824 106.403 71.5824C107.355 71.5824 108.149 70.532 107.99 69.3314C107.99 68.1309 107.197 67.2305 106.244 67.2305Z" fill="#594FC2"/>
<path d="M150.211 64.8296C149.259 64.8296 148.465 65.8801 148.624 67.0806C148.624 68.2812 149.418 69.1816 150.37 69.1816C151.322 69.1816 152.116 68.1311 151.957 66.9305C152.116 65.73 151.163 64.8296 150.211 64.8296Z" fill="#594FC2"/>
<path d="M82.1374 233.667C82.2969 235.326 82.4564 236.231 82.6159 236.684C82.6159 236.684 73.3642 230.651 64.2719 224.92L75.2783 190.233C75.5974 191.741 79.5852 214.061 80.3828 219.943C80.3828 220.094 80.3828 220.245 80.3828 220.245C80.3828 220.396 80.3828 220.396 80.3828 220.546C80.3828 220.697 80.3828 220.697 80.3828 220.848C81.3398 226.881 81.9779 232.159 82.1374 233.667Z" fill="url(#paint6_linear)"/>
<path d="M75.7699 160.272L75.2937 190.436L46.5647 186.984C46.4059 143.765 46.0885 58.8267 46.0885 58.8267L70.3732 60.9276C70.3732 60.9276 72.7541 107.899 73.8652 128.458C74.3413 136.262 74.9762 148.267 75.7699 160.272Z" fill="url(#paint7_linear)"/>
<path d="M76.0865 160.272L75.6103 190.436L46.8813 186.984C46.7226 143.765 46.4051 58.8267 46.4051 58.8267L70.6899 60.9276C70.6899 60.9276 73.0707 107.899 74.1818 128.458C74.658 136.262 75.2929 148.267 76.0865 160.272Z" fill="url(#paint8_linear)"/>
<path d="M75.2923 190.436L64.3403 224.952C55.928 219.549 47.6743 214.147 47.1982 213.847C49.7377 212.496 75.2923 190.436 75.2923 190.436Z" fill="#CF0000"/>
<path d="M75.2923 190.436L64.3403 224.952C55.928 219.549 47.6743 214.147 47.1982 213.847C49.7377 212.496 75.2923 190.436 75.2923 190.436Z" fill="url(#paint9_linear)"/>
<path d="M46.5642 186.984L75.2932 190.436C75.2932 190.436 49.7387 212.496 47.1991 213.846C46.4055 213.246 46.7229 213.696 46.7229 211.746C46.5642 211.145 46.5642 201.391 46.5642 186.984Z" fill="#990000"/>
<path d="M46.5642 186.984L75.2932 190.436C75.2932 190.436 49.7387 212.496 47.1991 213.846C46.4055 213.246 46.7229 213.696 46.7229 211.746C46.5642 211.145 46.5642 201.391 46.5642 186.984Z" fill="url(#paint10_linear)"/>
<path d="M163.385 56.4258V57.7766L184.178 57.0262L163.385 56.4258Z" fill="#C9BFFF"/>
<path d="M168.464 55.0752V56.5761L163.385 56.426L168.464 55.0752Z" fill="#5D71DD"/>
<path d="M72.2778 61.3777C71.1667 61.3777 70.5318 61.3777 70.3731 61.3777V60.6274C70.3731 60.6274 71.9604 60.7774 74.0238 60.6274C75.2936 60.6274 118.149 58.9766 149.259 57.9261C168.623 57.1758 184.178 56.7256 184.178 56.7256V57.4759C184.178 57.4759 168.623 58.0762 149.259 58.6765C118.308 59.7269 75.4523 61.3777 74.1825 61.3777C73.5476 61.3777 72.754 61.3777 72.2778 61.3777Z" fill="#E7E2FF"/>
<path d="M104.816 69.4815C103.388 39.3179 110.371 22.9605 120.054 16.9578C125.45 13.6563 131.482 13.5062 136.72 16.5076C148.306 23.1106 151.322 40.6685 151.798 66.9303C151.798 67.6806 150.846 68.2809 150.211 68.1308C149.259 67.9808 148.783 67.3805 148.783 66.9303C147.513 36.4666 143.386 23.5608 135.132 19.0587C130.847 16.6577 126.085 16.8077 121.641 19.5089C113.07 24.7613 107.356 40.6685 107.832 69.3314C107.832 69.7816 107.197 70.8321 106.403 70.8321C105.451 70.682 104.816 69.9317 104.816 69.4815Z" fill="url(#paint11_linear)"/>
<path d="M46.1071 58.5194L46.0331 59.2666L70.7012 61.4551L70.7752 60.708L46.1071 58.5194Z" fill="#E6E2FF"/>
<path d="M168.411 54.7036L163.371 56.0522L163.587 56.7745L168.627 55.4258L168.411 54.7036Z" fill="#5D71DD"/>
<path d="M163.481 56.1004L163.46 56.8506L184.244 57.392L184.266 56.6418L163.481 56.1004Z" fill="#E6E2FF"/>
</g>
<defs>
<filter id="filter0_i" x="77.9915" y="176.33" width="110.221" height="60.6273" filterUnits="userSpaceOnUse" color-interpolation-filters="sRGB">
<feFlood flood-opacity="0" result="BackgroundImageFix"/>
<feBlend mode="normal" in="SourceGraphic" in2="BackgroundImageFix" result="shape"/>
<feColorMatrix in="SourceAlpha" type="matrix" values="0 0 0 0 0 0 0 0 0 0 0 0 0 0 0 0 0 0 127 0" result="hardAlpha"/>
<feOffset dx="1.01869"/>
<feGaussianBlur stdDeviation="0.509346"/>
<feComposite in2="hardAlpha" operator="arithmetic" k2="-1" k3="1"/>
<feColorMatrix type="matrix" values="0 0 0 0 1 0 0 0 0 1 0 0 0 0 1 0 0 0 1 0"/>
<feBlend mode="normal" in2="shape" result="effect1_innerShadow"/>
</filter>
<filter id="filter1_i" x="70.5004" y="57.0322" width="116.57" height="143.465" filterUnits="userSpaceOnUse" color-interpolation-filters="sRGB">
<feFlood flood-opacity="0" result="BackgroundImageFix"/>
<feBlend mode="normal" in="SourceGraphic" in2="BackgroundImageFix" result="shape"/>
<feColorMatrix in="SourceAlpha" type="matrix" values="0 0 0 0 0 0 0 0 0 0 0 0 0 0 0 0 0 0 127 0" result="hardAlpha"/>
<feOffset dx="1.01869"/>
<feGaussianBlur stdDeviation="0.509346"/>
<feComposite in2="hardAlpha" operator="arithmetic" k2="-1" k3="1"/>
<feColorMatrix type="matrix" values="0 0 0 0 1 0 0 0 0 1 0 0 0 0 1 0 0 0 1 0"/>
<feBlend mode="normal" in2="shape" result="effect1_innerShadow"/>
</filter>
<radialGradient id="paint0_radial" cx="0" cy="0" r="1" gradientUnits="userSpaceOnUse" gradientTransform="translate(99 216.5) rotate(90) scale(78.8449 151.566)">
<stop stop-color="#D8E2EE"/>
<stop offset="0.303952" stop-color="#E7EDF5" stop-opacity="0.869792"/>
<stop offset="1" stop-color="#F1F3F6" stop-opacity="0"/>
</radialGradient>
<linearGradient id="paint1_linear" x1="99.5175" y1="36.9287" x2="158.559" y2="43.8077" gradientUnits="userSpaceOnUse">
<stop stop-color="#5D71DD"/>
<stop offset="0.625815" stop-color="#9E8EFF"/>
<stop offset="1" stop-color="#BBAFFE"/>
</linearGradient>
<linearGradient id="paint2_linear" x1="76.2586" y1="203.852" x2="87.5452" y2="190.692" gradientUnits="userSpaceOnUse">
<stop stop-color="#5D71DD"/>
<stop offset="0.498015" stop-color="#9E8EFF"/>
<stop offset="1" stop-color="#BBAFFE"/>
</linearGradient>
<linearGradient id="paint3_linear" x1="81.6718" y1="208.596" x2="88.9237" y2="201.785" gradientUnits="userSpaceOnUse">
<stop stop-color="#5D71DD"/>
<stop offset="0.498015" stop-color="#9E8EFF"/>
<stop offset="1" stop-color="#BBAFFE"/>
</linearGradient>
<linearGradient id="paint4_linear" x1="161.403" y1="240.874" x2="135.005" y2="169.633" gradientUnits="userSpaceOnUse">
<stop stop-color="#5D71DD"/>
<stop offset="1" stop-color="#B3A5FF"/>
</linearGradient>
<linearGradient id="paint5_linear" x1="61.9081" y1="61.7587" x2="196.833" y2="153.766" gradientUnits="userSpaceOnUse">
<stop stop-color="#5D71DD"/>
<stop offset="1" stop-color="#B3A5FF"/>
</linearGradient>
<linearGradient id="paint6_linear" x1="68.0569" y1="211.933" x2="79.8744" y2="180.909" gradientUnits="userSpaceOnUse">
<stop stop-color="#5D71DD"/>
<stop offset="0.498015" stop-color="#9E8EFF"/>
<stop offset="1" stop-color="#BBAFFE"/>
</linearGradient>
<linearGradient id="paint7_linear" x1="52.2127" y1="120.311" x2="98.6783" y2="50.6478" gradientUnits="userSpaceOnUse">
<stop stop-color="#5D71DD"/>
<stop offset="0.498015" stop-color="#9E8EFF"/>
<stop offset="1" stop-color="#BBAFFE"/>
</linearGradient>
<linearGradient id="paint8_linear" x1="52.5294" y1="120.311" x2="89.446" y2="121.282" gradientUnits="userSpaceOnUse">
<stop stop-color="#5D71DD"/>
<stop offset="0.625815" stop-color="#9E8EFF"/>
<stop offset="1" stop-color="#BBAFFE"/>
</linearGradient>
<linearGradient id="paint9_linear" x1="52.9949" y1="206.561" x2="57.7123" y2="181.035" gradientUnits="userSpaceOnUse">
<stop stop-color="#5D71DD"/>
<stop offset="0.498015" stop-color="#9E8EFF"/>
<stop offset="1" stop-color="#BBAFFE"/>
</linearGradient>
<linearGradient id="paint10_linear" x1="52.4919" y1="199.534" x2="55.3255" y2="179.388" gradientUnits="userSpaceOnUse">
<stop stop-color="#5D71DD"/>
<stop offset="0.498015" stop-color="#9E8EFF"/>
<stop offset="1" stop-color="#BBAFFE"/>
</linearGradient>
<linearGradient id="paint11_linear" x1="114.363" y1="40.7442" x2="172.517" y2="46.4107" gradientUnits="userSpaceOnUse">
<stop stop-color="#5D71DD"/>
<stop offset="0.625815" stop-color="#9E8EFF"/>
<stop offset="1" stop-color="#BBAFFE"/>
</linearGradient>
<clipPath id="clip0">
<rect width="141.105" height="236.957" fill="white" transform="translate(46.0885)"/>
</clipPath>
</defs>
</svg>
