<svg width="17" height="16" viewBox="0 0 17 16" fill="none" xmlns="http://www.w3.org/2000/svg">
<path fill-rule="evenodd" clip-rule="evenodd" d="M8.4834 0C4.0674 0 0.483398 3.584 0.483398 8C0.483398 12.416 4.0674 16 8.4834 16C12.8994 16 16.4834 12.416 16.4834 8C16.4834 3.584 12.8994 0 8.4834 0ZM8.4834 14.3998C4.9554 14.3998 2.0834 11.5278 2.0834 7.99983C2.0834 4.47183 4.9554 1.59983 8.4834 1.59983C12.0114 1.59983 14.8834 4.47183 14.8834 7.99983C14.8834 11.5278 12.0114 14.3998 8.4834 14.3998ZM11.5874 5.03198C11.9008 4.71861 12.4091 4.7195 12.7214 5.03398C13.0321 5.3469 13.0312 5.85217 12.7194 6.16398L7.5234 11.36C7.16993 11.7134 6.59686 11.7134 6.2434 11.36L4.24794 9.36452C3.93615 9.05273 3.93615 8.54722 4.24794 8.23543C4.5593 7.92407 5.06397 7.92358 5.37594 8.23434L6.65317 9.50664C6.78039 9.63337 6.9862 9.63317 7.11317 9.5062L11.5874 5.03198Z" fill="#5D71DD"/>
</svg>
