<svg width="45" height="46" viewBox="0 0 45 46" fill="none" xmlns="http://www.w3.org/2000/svg">
<path fill-rule="evenodd" clip-rule="evenodd" d="M22.5 44C33.6254 44 42.6444 34.598 42.6444 23C42.6444 11.402 33.6254 2 22.5 2C11.3745 2 2.35553 11.402 2.35553 23C2.35553 34.598 11.3745 44 22.5 44ZM22.5 46C34.685 46 44.5629 35.7025 44.5629 23C44.5629 10.2975 34.685 0 22.5 0C10.3149 0 0.437012 10.2975 0.437012 23C0.437012 35.7025 10.3149 46 22.5 46Z" fill="white"/>
<path fill-rule="evenodd" clip-rule="evenodd" d="M10.4618 27.7582C12.2835 32.5842 16.7943 36 22.0704 36C27.6976 36 32.4542 32.1146 34.0064 26.7769C34.1375 26.3258 34.5265 26 34.9787 26C35.5951 26 36.0583 26.5902 35.8857 27.2071C34.141 33.4435 28.6162 38 22.0704 38C15.9722 38 10.76 34.0452 8.66511 28.4616L8.05408 29.9435C7.8465 30.4469 7.26386 30.6791 6.76695 30.4564C6.29079 30.243 6.07038 29.6899 6.26928 29.2075L7.42753 26.3985L7.79229 25.5139C8.00733 24.9924 8.61092 24.7519 9.12571 24.9825L9.94776 25.3509L12.5934 26.5364C13.0834 26.756 13.3102 27.3252 13.1055 27.8215C12.8919 28.3396 12.2924 28.5785 11.781 28.3494L10.4618 27.7582ZM37.8199 16.7158C37.3311 16.4724 36.7379 16.6821 36.5105 17.1785L35.8417 18.6387C34.0497 12.4815 28.5621 8 22.0704 8C15.156 8 9.38059 13.0843 7.99684 19.8623C7.8748 20.4601 8.32924 21 8.91551 21C9.39379 21 9.79661 20.6347 9.90108 20.1481C11.1481 14.3403 16.123 10 22.0704 10C27.7087 10 32.4729 13.9007 34.0155 19.2546L32.7276 18.6136C32.2259 18.3638 31.617 18.579 31.3836 19.0886C31.1607 19.5753 31.3642 20.1512 31.8435 20.3898L34.4462 21.6854L35.2528 22.0869C35.7586 22.3386 36.3723 22.1217 36.6076 21.6081L37.0042 20.7423L38.2679 17.9834C38.4851 17.5092 38.2868 16.9482 37.8199 16.7158Z" fill="white"/>
</svg>
