<svg width="44" height="46" viewBox="0 0 44 46" fill="none" xmlns="http://www.w3.org/2000/svg">
<path fill-rule="evenodd" clip-rule="evenodd" d="M28.9659 2.42069L9.24725 18.3876H6.11973L27.7891 0.841195C29.4626 -0.51396 31.8732 -0.198205 33.1731 1.54646L43.0251 14.7689C44.3251 16.5136 44.0222 19.0265 42.3486 20.3816L39.7666 22.4723V25.3877V31.3877V41.3877C39.7666 43.5968 38.0487 45.3877 35.9296 45.3877H4.27405C2.15491 45.3877 0.437012 43.5968 0.437012 41.3877V31.3877V25.3877V22.3877C0.437012 20.1786 2.15491 18.3877 4.27405 18.3877H35.9296C37.3411 18.3877 38.5745 19.1822 39.2409 20.3656L41.1717 18.8021C42.0085 18.1246 42.16 16.8681 41.51 15.9958L31.658 2.77332C31.008 1.90099 29.8027 1.74311 28.9659 2.42069ZM35.9296 20.3877H4.27405C3.21448 20.3877 2.35553 21.2831 2.35553 22.3877V25.3877H37.8481V22.3877C37.8481 21.2831 36.9892 20.3877 35.9296 20.3877ZM2.35553 29.3877V27.3877H37.8481V29.3877H2.35553ZM2.35553 31.3877H37.8481V41.3877C37.8481 42.4923 36.9892 43.3877 35.9296 43.3877H4.27405C3.21448 43.3877 2.35553 42.4923 2.35553 41.3877V31.3877Z" fill="white"/>
<path fill-rule="evenodd" clip-rule="evenodd" d="M29.2148 37.3877C29.2148 37.94 28.7853 38.3877 28.2555 38.3877C27.7257 38.3877 27.2963 37.94 27.2963 37.3877C27.2963 36.8354 27.7257 36.3877 28.2555 36.3877C28.7853 36.3877 29.2148 36.8354 29.2148 37.3877ZM30.174 39.6238C29.6649 40.0988 28.9926 40.3877 28.2555 40.3877C26.6662 40.3877 25.3777 39.0445 25.3777 37.3877C25.3777 35.7308 26.6662 34.3877 28.2555 34.3877C28.9926 34.3877 29.6649 34.6765 30.174 35.1516C30.6832 34.6765 31.3555 34.3877 32.0926 34.3877C33.6819 34.3877 34.9703 35.7308 34.9703 37.3877C34.9703 39.0445 33.6819 40.3877 32.0926 40.3877C31.3555 40.3877 30.6832 40.0988 30.174 39.6238ZM33.0518 37.3877C33.0518 37.94 32.6223 38.3877 32.0926 38.3877C31.5628 38.3877 31.1333 37.94 31.1333 37.3877C31.1333 36.8354 31.5628 36.3877 32.0926 36.3877C32.6223 36.3877 33.0518 36.8354 33.0518 37.3877Z" fill="white"/>
</svg>
