<svg width="47" height="46" viewBox="0 0 47 46" fill="none" xmlns="http://www.w3.org/2000/svg">
<path fill-rule="evenodd" clip-rule="evenodd" d="M34.2053 10.8235H31.3605C29.8891 10.8235 28.6138 9.4706 28.3196 7.57648C28.0253 5.00589 29.4967 2.70589 31.2625 2.70589H34.2053C34.7939 2.70589 35.1863 2.16471 35.1863 1.35294C35.1863 0.541177 34.7939 0 34.2053 0H31.4586C28.9081 0 26.6519 2.57059 26.3576 6.08824C26.0633 10.1471 28.4177 13.5294 31.2625 13.5294H34.2053C34.7939 13.5294 35.1863 12.9883 35.1863 12.1765C35.1863 11.3647 34.7939 10.8235 34.2053 10.8235ZM40.8759 0H38.1292C37.5406 0 37.1482 0.541177 37.1482 1.35294C37.1482 2.16471 37.5406 2.70589 38.1292 2.70589H40.974C42.4455 2.70589 43.7207 4.05883 44.015 5.95295C44.3093 8.52354 42.8378 10.8235 41.0721 10.8235H38.1292C37.5406 10.8235 37.1482 11.3647 37.1482 12.1765C37.1482 12.9883 37.5406 13.5294 38.1292 13.5294H41.0721C43.9169 13.5294 46.2712 10.1471 45.9769 6.08824C45.6826 2.57059 43.4264 0 40.8759 0ZM39.1102 5.41177H33.2244C32.6358 5.41177 32.2434 5.95295 32.2434 6.76471C32.2434 7.57648 32.6358 8.11766 33.2244 8.11766H39.1102C39.6988 8.11766 40.0911 7.57648 40.0911 6.76471C40.0911 5.95295 39.6988 5.41177 39.1102 5.41177Z" fill="white"/>
<path d="M40.0905 16.2353H2.8138V10.8235C2.8138 9.33531 3.69667 8.11766 4.77573 8.11766H23.4141C24.0026 8.11766 24.395 7.57648 24.395 6.76472C24.395 5.95295 24.0026 5.41177 23.4141 5.41177H4.77573C2.6176 5.41177 0.851868 7.84707 0.851868 10.8235V16.2353V18.9412V40.5883C0.851868 43.5647 2.6176 46 4.77573 46H38.1285C40.2867 46 42.0524 43.5647 42.0524 40.5883V18.9412C42.0524 17.453 41.1695 16.2353 40.0905 16.2353ZM40.0905 40.5883C40.0905 42.0765 39.2076 43.2942 38.1285 43.2942H4.77573C3.69667 43.2942 2.8138 42.0765 2.8138 40.5883V18.9412H39.6981C39.8943 18.9412 40.0905 19.2118 40.0905 19.4824V40.5883Z" fill="white"/>
</svg>
