<svg width="150" height="150" viewBox="0 0 150 150" fill="none" xmlns="http://www.w3.org/2000/svg">
<g clip-path="url(#clip0)">
<path d="M86.514 150C121.576 150 150 121.576 150 86.514C150 51.4517 121.576 23.0281 86.514 23.0281C51.4517 23.0281 23.0281 51.4517 23.0281 86.514C23.0281 121.576 51.4517 150 86.514 150Z" fill="#5D71DD"/>
<path d="M63.6804 127.166C98.7427 127.166 127.166 98.7426 127.166 63.6803C127.166 28.618 98.7427 0.194336 63.6804 0.194336C28.618 0.194336 0.194397 28.618 0.194397 63.6803C0.194397 98.7426 28.618 127.166 63.6804 127.166Z" stroke="#010101" stroke-width="3" stroke-linecap="round" stroke-linejoin="round"/>
<path d="M63.6803 94.3102C80.5967 94.3102 94.3101 80.5967 94.3101 63.6803C94.3101 46.764 80.5967 33.0505 63.6803 33.0505C46.764 33.0505 33.0505 46.764 33.0505 63.6803C33.0505 80.5967 46.764 94.3102 63.6803 94.3102Z" stroke="#010101" stroke-width="3" stroke-linecap="round" stroke-linejoin="round"/>
</g>
<defs>
<clipPath id="clip0">
<rect width="150" height="150" fill="white"/>
</clipPath>
</defs>
</svg>
