<svg width="40" height="40" viewBox="0 0 40 40" fill="none" xmlns="http://www.w3.org/2000/svg">
<g clip-path="url(#clip0)">
<path d="M6.66719 9.99999C6.01011 10.0017 5.35921 9.87312 4.75215 9.62166C4.14508 9.37019 3.59391 9.00085 3.13052 8.53499L0.557187 6.24499C0.226992 5.9506 0.027268 5.5371 0.00195054 5.09545C-0.0233669 4.6538 0.127797 4.22018 0.422187 3.88999C0.716577 3.5598 1.13008 3.36007 1.57173 3.33475C2.01338 3.30944 2.44699 3.4606 2.77719 3.75499L5.41885 6.11166C5.57008 6.28148 5.75446 6.41857 5.96065 6.51447C6.16684 6.61038 6.39047 6.66307 6.61778 6.66932C6.8451 6.67556 7.07129 6.63522 7.28243 6.55078C7.49357 6.46634 7.6852 6.33959 7.84552 6.17832L13.8522 0.459989C14.1752 0.17244 14.5973 0.0216879 15.0294 0.0395746C15.4614 0.0574613 15.8696 0.242586 16.1678 0.555848C16.4659 0.86911 16.6306 1.28598 16.627 1.71841C16.6235 2.15084 16.452 2.56497 16.1489 2.87332L10.1672 8.56332C9.70681 9.02102 9.16073 9.38349 8.56017 9.63C7.95962 9.87651 7.31636 10.0022 6.66719 9.99999V9.99999ZM40.0005 6.66666C40.0005 6.22463 39.8249 5.80071 39.5124 5.48815C39.1998 5.17558 38.7759 4.99999 38.3339 4.99999H21.6672C21.2252 4.99999 20.8012 5.17558 20.4887 5.48815C20.1761 5.80071 20.0005 6.22463 20.0005 6.66666C20.0005 7.10868 20.1761 7.53261 20.4887 7.84517C20.8012 8.15773 21.2252 8.33332 21.6672 8.33332H38.3339C38.7759 8.33332 39.1998 8.15773 39.5124 7.84517C39.8249 7.53261 40.0005 7.10868 40.0005 6.66666ZM10.1672 21.8967L16.1489 16.2067C16.3158 16.058 16.4512 15.8773 16.5468 15.6753C16.6425 15.4733 16.6966 15.2541 16.7059 15.0308C16.7151 14.8074 16.6793 14.5845 16.6007 14.3753C16.522 14.1661 16.402 13.9748 16.248 13.8129C16.0939 13.6509 15.9088 13.5217 15.7037 13.4327C15.4986 13.3438 15.2777 13.297 15.0542 13.2952C14.8307 13.2934 14.6091 13.3366 14.4026 13.4221C14.1961 13.5077 14.0089 13.6339 13.8522 13.7933L7.85219 19.5117C7.53491 19.815 7.11284 19.9844 6.67385 19.9844C6.23487 19.9844 5.8128 19.815 5.49552 19.5117L2.84552 16.87C2.53118 16.5664 2.11018 16.3984 1.67319 16.4022C1.23619 16.406 0.81817 16.5813 0.509156 16.8903C0.200143 17.1993 0.024861 17.6173 0.0210636 18.0543C0.0172662 18.4913 0.185257 18.9123 0.488854 19.2267L3.13052 21.8683C4.06331 22.8013 5.32705 23.3279 6.64635 23.3332C7.96566 23.3385 9.23359 22.8221 10.1739 21.8967H10.1672ZM40.0005 20C40.0005 19.558 39.8249 19.134 39.5124 18.8215C39.1998 18.5089 38.7759 18.3333 38.3339 18.3333H21.6672C21.2252 18.3333 20.8012 18.5089 20.4887 18.8215C20.1761 19.134 20.0005 19.558 20.0005 20C20.0005 20.442 20.1761 20.8659 20.4887 21.1785C20.8012 21.4911 21.2252 21.6667 21.6672 21.6667H38.3339C38.7759 21.6667 39.1998 21.4911 39.5124 21.1785C39.8249 20.8659 40.0005 20.442 40.0005 20ZM10.1672 35.23L16.1422 29.54C16.3091 29.3914 16.4445 29.2107 16.5402 29.0086C16.6359 28.8066 16.6899 28.5874 16.6992 28.3641C16.7084 28.1408 16.6727 27.9179 16.594 27.7086C16.5153 27.4994 16.3954 27.3081 16.2413 27.1462C16.0872 26.9843 15.9021 26.855 15.697 26.7661C15.4919 26.6771 15.2711 26.6304 15.0475 26.6286C14.824 26.6267 14.6024 26.6699 14.3959 26.7555C14.1894 26.841 14.0022 26.9673 13.8455 27.1267L7.84552 32.845C7.6852 33.0063 7.49357 33.133 7.28243 33.2175C7.07129 33.3019 6.8451 33.3422 6.61778 33.336C6.39047 33.3297 6.16684 33.277 5.96065 33.1811C5.75446 33.0852 5.57008 32.9482 5.41885 32.7783L2.77719 30.4217C2.44699 30.1273 2.01338 29.9761 1.57173 30.0014C1.13008 30.0267 0.716577 30.2265 0.422187 30.5567C0.127797 30.8869 -0.0233669 31.3205 0.00195054 31.7621C0.027268 32.2038 0.226992 32.6173 0.557187 32.9117L3.13052 35.2017C4.06331 36.1347 5.32705 36.6612 6.64635 36.6665C7.96566 36.6718 9.23359 36.1555 10.1739 35.23H10.1672ZM40.0005 33.3333C40.0005 32.8913 39.8249 32.4674 39.5124 32.1548C39.1998 31.8423 38.7759 31.6667 38.3339 31.6667H21.6672C21.2252 31.6667 20.8012 31.8423 20.4887 32.1548C20.1761 32.4674 20.0005 32.8913 20.0005 33.3333C20.0005 33.7754 20.1761 34.1993 20.4887 34.5118C20.8012 34.8244 21.2252 35 21.6672 35H38.3339C38.7759 35 39.1998 34.8244 39.5124 34.5118C39.8249 34.1993 40.0005 33.7754 40.0005 33.3333Z" fill="#5D71DD"/>
</g>
<defs>
<clipPath id="clip0">
<rect width="40" height="40" fill="white"/>
</clipPath>
</defs>
</svg>
