<svg width="40" height="40" viewBox="0 0 40 40" fill="none" xmlns="http://www.w3.org/2000/svg">
<g clip-path="url(#clip0)">
<path d="M39.5117 37.155L29.5633 27.2067C32.2744 23.891 33.6073 19.6602 33.2864 15.3893C32.9655 11.1184 31.0154 7.13422 27.8393 4.26087C24.6633 1.38752 20.5043 -0.155177 16.2227 -0.0481237C11.9412 0.0589293 7.86451 1.80754 4.83602 4.83602C1.80754 7.86451 0.0589293 11.9412 -0.0481237 16.2227C-0.155177 20.5043 1.38752 24.6633 4.26087 27.8393C7.13422 31.0154 11.1184 32.9655 15.3893 33.2864C19.6602 33.6073 23.891 32.2744 27.2067 29.5633L37.155 39.5117C37.4693 39.8153 37.8903 39.9833 38.3273 39.9795C38.7643 39.9757 39.1824 39.8004 39.4914 39.4914C39.8004 39.1824 39.9757 38.7643 39.9795 38.3273C39.9833 37.8903 39.8153 37.4693 39.5117 37.155ZM16.6667 30C14.0296 30 11.4517 29.218 9.25906 27.7529C7.06641 26.2878 5.35744 24.2055 4.34827 21.7691C3.33911 19.3328 3.07506 16.6519 3.58953 14.0655C4.104 11.4791 5.37388 9.10328 7.23858 7.23858C9.10328 5.37388 11.4791 4.104 14.0655 3.58953C16.6519 3.07506 19.3328 3.33911 21.7691 4.34827C24.2055 5.35744 26.2878 7.06641 27.7529 9.25906C29.218 11.4517 30 14.0296 30 16.6667C29.996 20.2017 28.59 23.5907 26.0904 26.0904C23.5907 28.59 20.2017 29.996 16.6667 30Z" fill="#5D71DD"/>
</g>
<defs>
<clipPath id="clip0">
<rect width="40" height="40" fill="white"/>
</clipPath>
</defs>
</svg>
