<svg width="40" height="40" viewBox="0 0 40 40" fill="none" xmlns="http://www.w3.org/2000/svg">
<g clip-path="url(#clip0)">
<path d="M38.3333 36.6667H5C4.55797 36.6667 4.13405 36.4911 3.82149 36.1785C3.50893 35.866 3.33333 35.442 3.33333 35V1.66667C3.33333 1.22464 3.15774 0.800716 2.84518 0.488155C2.53262 0.175595 2.10869 0 1.66667 0C1.22464 0 0.800716 0.175595 0.488155 0.488155C0.175595 0.800716 0 1.22464 0 1.66667L0 35C0 36.3261 0.526784 37.5979 1.46447 38.5355C2.40215 39.4732 3.67392 40 5 40H38.3333C38.7754 40 39.1993 39.8244 39.5118 39.5118C39.8244 39.1993 40 38.7754 40 38.3333C40 37.8913 39.8244 37.4674 39.5118 37.1548C39.1993 36.8423 38.7754 36.6667 38.3333 36.6667Z" fill="#5D71DD"/>
<path d="M25 33.3333C25.442 33.3333 25.866 33.1577 26.1785 32.8452C26.4911 32.5326 26.6667 32.1087 26.6667 31.6667V20C26.6667 19.558 26.4911 19.134 26.1785 18.8215C25.866 18.5089 25.442 18.3333 25 18.3333C24.558 18.3333 24.1341 18.5089 23.8215 18.8215C23.5089 19.134 23.3333 19.558 23.3333 20V31.6667C23.3333 32.1087 23.5089 32.5326 23.8215 32.8452C24.1341 33.1577 24.558 33.3333 25 33.3333Z" fill="#5D71DD"/>
<path d="M11.6667 33.3333C12.1087 33.3333 12.5326 33.1577 12.8452 32.8452C13.1577 32.5326 13.3333 32.1087 13.3333 31.6667V20C13.3333 19.558 13.1577 19.134 12.8452 18.8215C12.5326 18.5089 12.1087 18.3333 11.6667 18.3333C11.2246 18.3333 10.8007 18.5089 10.4882 18.8215C10.1756 19.134 10 19.558 10 20V31.6667C10 32.1087 10.1756 32.5326 10.4882 32.8452C10.8007 33.1577 11.2246 33.3333 11.6667 33.3333Z" fill="#5D71DD"/>
<path d="M31.6667 33.3333C32.1087 33.3333 32.5326 33.1577 32.8452 32.8452C33.1577 32.5326 33.3333 32.1087 33.3333 31.6667V11.6667C33.3333 11.2246 33.1577 10.8007 32.8452 10.4882C32.5326 10.1756 32.1087 10 31.6667 10C31.2246 10 30.8007 10.1756 30.4882 10.4882C30.1756 10.8007 30 11.2246 30 11.6667V31.6667C30 32.1087 30.1756 32.5326 30.4882 32.8452C30.8007 33.1577 31.2246 33.3333 31.6667 33.3333Z" fill="#5D71DD"/>
<path d="M18.3333 33.3333C18.7754 33.3333 19.1993 33.1577 19.5118 32.8452C19.8244 32.5326 20 32.1087 20 31.6667V11.6667C20 11.2246 19.8244 10.8007 19.5118 10.4882C19.1993 10.1756 18.7754 10 18.3333 10C17.8913 10 17.4674 10.1756 17.1548 10.4882C16.8423 10.8007 16.6667 11.2246 16.6667 11.6667V31.6667C16.6667 32.1087 16.8423 32.5326 17.1548 32.8452C17.4674 33.1577 17.8913 33.3333 18.3333 33.3333Z" fill="#5D71DD"/>
</g>
<defs>
<clipPath id="clip0">
<rect width="40" height="40" fill="white"/>
</clipPath>
</defs>
</svg>
