<svg width="24" height="24" viewBox="0 0 24 24" fill="none" xmlns="http://www.w3.org/2000/svg">
<g clip-path="url(#clip0)">
<path d="M12 17.169C11.3434 17.1702 10.693 17.0417 10.0861 16.7908C9.47932 16.5399 8.92805 16.1716 8.46399 15.707L0.292995 7.53499C0.110837 7.34639 0.0100427 7.09379 0.0123211 6.83159C0.0145995 6.56939 0.119768 6.31858 0.305177 6.13317C0.490585 5.94777 0.741397 5.8426 1.00359 5.84032C1.26579 5.83804 1.51839 5.93883 1.707 6.12099L9.878 14.293C10.4413 14.8548 11.2044 15.1703 12 15.1703C12.7956 15.1703 13.5587 14.8548 14.122 14.293L22.293 6.12099C22.3852 6.02548 22.4956 5.9493 22.6176 5.89689C22.7396 5.84448 22.8708 5.8169 23.0036 5.81574C23.1364 5.81459 23.2681 5.83989 23.3909 5.89017C23.5138 5.94045 23.6255 6.0147 23.7194 6.1086C23.8133 6.20249 23.8875 6.31414 23.9378 6.43704C23.9881 6.55993 24.0134 6.69161 24.0122 6.82439C24.0111 6.95717 23.9835 7.08839 23.9311 7.2104C23.8787 7.3324 23.8025 7.44275 23.707 7.53499L15.536 15.707C15.0719 16.1716 14.5207 16.5399 13.9139 16.7908C13.307 17.0417 12.6566 17.1702 12 17.169V17.169Z" fill="#5D71DD"/>
</g>
<defs>
<clipPath id="clip0">
<rect width="24" height="24" fill="white"/>
</clipPath>
</defs>
</svg>
