<svg width="286" height="152" viewBox="0 0 286 152" fill="none" xmlns="http://www.w3.org/2000/svg">
<ellipse cx="145" cy="94.5" rx="141" ry="57.5" fill="url(#paint0_radial)" fill-opacity="0.5"/>
<g clip-path="url(#clip0)">
<path d="M43.3076 20.4416C43.3076 18.5565 39.2751 15.7878 39.2056 13.8438L39.6923 45.4782C39.6923 47.4223 43.7247 50.191 43.7942 52.0761L43.3076 20.4416Z" fill="white"/>
<path d="M215.176 33.0478V18.6738C215.218 19.1154 215.07 19.5551 214.758 19.9109C213.229 22.1495 206.485 24.5648 206.624 27.1568C206.624 34.874 206.972 52.2523 207.111 58.5557C207.111 56.4938 212.603 53.9607 214.063 52.6647C214.499 52.385 214.861 52.0306 215.124 51.6246C215.388 51.2186 215.547 50.7701 215.593 50.3083C215.454 49.7192 215.176 33.0478 215.176 33.0478Z" fill="#E1E8F1"/>
<path d="M22.4398 40.3612C22.4398 37.2979 13.4016 35.3539 10.6901 34.1757C7.97866 32.9975 6.65768 31.8782 6.65768 30.6411L7.35293 62.2756C7.70056 67.1651 22.7875 67.1062 23.2046 71.9957L22.4398 40.3612Z" fill="white"/>
<path d="M170.677 43.9463C165.393 18.7919 87.2471 20.3825 70.2135 37.5841C67.8717 39.5992 66.5284 42.2971 66.4591 45.1245L66.9458 76.5823C67.1031 74.6715 67.7583 72.814 68.8643 71.1435C69.9703 69.4729 71.4996 68.0309 73.3421 66.9211C92.6005 53.0184 164.976 50.6031 171.233 75.5808L170.677 43.9463Z" fill="url(#paint1_linear)"/>
<path d="M237.376 57.0599L236.959 36.3237C236.959 38.9747 233.205 39.9761 230.493 40.683C226.113 42.3325 215.962 42.3325 214.92 47.222C214.92 55.1159 215.267 70.7859 215.406 78.8565C217.701 71.8463 233.622 74.9685 237.307 68.783C237.793 69.0186 237.307 57.2367 237.376 57.0599Z" fill="#E2E9F4"/>
<path d="M230.852 56.7719C230.365 59.953 225.777 60.8956 222.718 61.5436C214.166 63.193 201.373 59.8352 194.908 65.7851C193.726 66.3742 194.908 76.3888 194.49 77.567C180.585 83.458 163.482 70.38 150.62 79.3343C150.133 79.6288 147.978 83.399 147.561 83.8703C142.416 89.1133 129.832 88.8776 123.297 85.5198C119.878 82.7025 115.55 80.8072 110.86 80.0732C106.17 79.3393 101.328 79.7996 96.9469 81.3961C90.4535 84.982 82.6627 86.4861 74.977 85.6376C71.8483 85.2252 66.9816 83.8114 66.9121 81.1605V77.2135C66.0778 73.0309 57.5957 72.324 53.0071 72.3829C45.8736 73.4655 38.6299 73.9392 31.3848 73.7968V60.7188C29.5076 54.8279 16.576 56.065 10.9445 55.1224C6.98153 54.769 0.585236 53.3551 0.585236 50.2329L1.07191 81.8674C1.07191 84.9896 8.02441 86.4623 11.2226 86.6391C12.4045 86.6391 21.9989 87.4638 22.7637 87.6405V100.718C22.7637 103.959 29.7162 105.313 33.401 105.49C42.7869 106.079 53.8414 101.838 62.8796 105.49C67.7464 106.904 66.8425 109.732 66.9816 112.913C66.9816 114.798 70.1797 116.388 72.6131 116.919C83.0419 120.159 92.3582 114.327 101.744 111.911C107.289 110.876 113.089 111.566 118.082 113.855C120.557 115.613 123.236 117.153 126.078 118.45C129.365 119.439 132.862 119.824 136.338 119.58C139.814 119.336 143.189 118.469 146.24 117.036C148.395 115.74 149.299 111.911 151.315 110.556C163.83 103.134 178.152 113.443 191.292 110.203C192.705 110.063 194.062 109.657 195.265 109.015C196.468 108.373 197.486 107.511 198.245 106.492C198.801 106.904 198.245 95.5933 198.245 95.5344C204.641 93.1191 214.027 94.3562 220.84 93.7082C224.595 93.178 230.365 92.4122 231.061 88.7009L230.852 56.7719Z" fill="url(#paint2_linear)"/>
<path d="M197.377 73.754C200.714 78.0544 188.478 81.8247 178.188 79.645L169.011 77.7599C161.293 76.2282 151.699 77.7599 149.613 81.1177L147.11 85.0058C144.607 88.9527 132.023 90.1898 125.071 87.6567C124.287 87.3944 123.541 87.0585 122.846 86.6552L117.493 83.2385C116.815 82.8455 116.093 82.5101 115.337 82.237C109.273 80.2639 102.561 80.2639 96.496 82.237L89.5435 85.1825C83.5042 87.2772 76.7587 87.3823 70.6327 85.4771C68.2688 84.6523 66.7393 83.4741 66.7393 82.0014V78.0544C66.7393 76.6406 65.1402 75.4035 62.7763 74.5788C58.6286 73.2636 54.1504 72.8781 49.7752 73.4595L39.6245 74.6377C35.2786 75.2465 30.8204 74.8809 26.6929 73.5773C22.73 72.1635 21.1309 69.7482 24.3986 67.6863L29.5434 64.1518C32.672 62.031 31.3511 59.6157 27.2491 58.2608C25.3008 57.5741 23.2352 57.1564 21.1309 57.0237L10.424 56.3168C8.32372 56.1627 6.26194 55.7458 4.30583 55.0797C-1.46474 53.0178 -1.18664 49.012 6.80873 47.1269L15.9165 45.0061C23.3557 43.2388 24.6071 39.1152 18.4194 37.1122L10.6326 34.4613C2.15056 31.398 7.78208 25.9194 19.6709 25.7427H30.2387C38.9988 25.7427 45.256 22.3848 42.7531 19.2626L39.7636 15.4335C36.4264 11.192 48.5933 7.42176 58.9525 9.54251L68.1298 11.3687C75.847 12.9004 85.4415 11.3687 87.5272 8.01086L90.0301 3.94609C92.533 -0.000852958 105.048 -1.17905 112 1.29516C112.808 1.57738 113.577 1.93291 114.294 2.35553L119.648 5.71338C120.306 6.14763 121.031 6.50433 121.803 6.77376C127.919 8.63365 134.631 8.50773 140.644 6.4203L147.597 3.47482C153.68 1.47522 160.425 1.47522 166.508 3.47482C168.871 4.29955 170.401 5.53665 170.401 6.95049V10.9563C170.401 12.3113 172 13.5484 174.364 14.432C178.76 15.7418 183.49 16.0266 188.06 15.2567L198.142 14.0196C202.489 13.4402 206.938 13.8051 211.073 15.08C215.036 16.5528 216.635 18.9091 213.367 20.971L208.223 24.5056C205.164 26.5674 206.415 28.9827 210.517 30.3965C212.482 31.027 214.541 31.4235 216.635 31.5747L226.925 32.4584C229.026 32.5672 231.093 32.9651 233.043 33.6366C238.883 35.6984 238.536 39.5275 230.54 41.5305L221.432 43.7101C213.993 45.4185 212.742 49.6011 218.929 51.5451L226.716 54.3138C235.268 57.3771 229.497 62.8557 217.678 63.0325H207.18C198.35 63.0325 192.093 66.3903 194.596 69.5714L197.377 73.754ZM82.1738 58.9088C106.055 66.2559 132.297 65.8783 155.87 57.8484C175.963 49.8956 175.615 37.4657 155.036 30.0431C131.14 22.6732 104.875 23.0298 81.27 31.0445C61.1773 39.0562 61.5249 51.5451 82.1738 58.9088Z" fill="#DCE2EF"/>
<path d="M171.372 28.6889C168.243 2.88652 70.3523 3.3578 67.0846 29.8671V45.7138C67.0677 43.6087 67.8206 41.5508 69.2399 39.8229C84.883 20.5005 165.254 18.7921 171.372 44.4178V28.6889Z" fill="url(#paint3_linear)"/>
<path d="M192.234 45.9085C192.72 44.7303 192.234 29.3549 192.234 27.8232C192.125 30.6846 191.064 33.4618 189.175 35.835C168.317 62.9923 53.8094 65.2898 46.3007 29.5316V45.3194C51.9322 81.1954 181.805 80.4296 192.234 45.9085Z" fill="url(#paint4_linear)"/>
<g filter="url(#filter0_i)">
<path d="M170.263 9.07217C199.047 19.4403 199.533 36.9364 171.445 48.0704C138.429 59.2761 101.697 59.7794 68.2702 49.4842C39.4173 39.1161 38.9307 21.6199 67.0188 10.486C100.058 -0.723652 136.814 -1.22698 170.263 9.07217ZM82.8705 43.711C106.744 51.077 132.985 50.7204 156.567 42.7096C176.66 34.7568 176.243 22.2679 155.663 14.8453C131.766 7.48101 105.504 7.83755 81.8971 15.8468C61.8044 23.8585 62.2215 36.2884 82.8705 43.711Z" fill="url(#paint5_linear)"/>
</g>
</g>
<defs>
<filter id="filter0_i" x="46.2867" y="1.69727" width="146.899" height="55.1589" filterUnits="userSpaceOnUse" color-interpolation-filters="sRGB">
<feFlood flood-opacity="0" result="BackgroundImageFix"/>
<feBlend mode="normal" in="SourceGraphic" in2="BackgroundImageFix" result="shape"/>
<feColorMatrix in="SourceAlpha" type="matrix" values="0 0 0 0 0 0 0 0 0 0 0 0 0 0 0 0 0 0 127 0" result="hardAlpha"/>
<feOffset dx="1"/>
<feGaussianBlur stdDeviation="0.5"/>
<feComposite in2="hardAlpha" operator="arithmetic" k2="-1" k3="1"/>
<feColorMatrix type="matrix" values="0 0 0 0 1 0 0 0 0 1 0 0 0 0 1 0 0 0 1 0"/>
<feBlend mode="normal" in2="shape" result="effect1_innerShadow"/>
</filter>
<radialGradient id="paint0_radial" cx="0" cy="0" r="1" gradientUnits="userSpaceOnUse" gradientTransform="translate(145 94.5) rotate(90) scale(88.0307 215.867)">
<stop stop-color="#D8E2EE"/>
<stop offset="0.303952" stop-color="#E7EDF5" stop-opacity="0.869792"/>
<stop offset="1" stop-color="#F1F3F6" stop-opacity="0"/>
</radialGradient>
<linearGradient id="paint1_linear" x1="90.4413" y1="76.5823" x2="171.233" y2="76.5823" gradientUnits="userSpaceOnUse">
<stop stop-color="#DCE4EF"/>
<stop offset="0.541667" stop-color="#E7EDF4" stop-opacity="0.473958"/>
<stop offset="1" stop-color="white"/>
</linearGradient>
<linearGradient id="paint2_linear" x1="0.585234" y1="74.5001" x2="240.523" y2="74.5001" gradientUnits="userSpaceOnUse">
<stop stop-color="white"/>
<stop offset="0.0001" stop-color="#E7EDF5" stop-opacity="0.869792"/>
<stop offset="0.0850786" stop-color="#E7EDF5" stop-opacity="0.869792"/>
<stop offset="0.134592" stop-color="#FEFEFF"/>
<stop offset="0.134692" stop-color="#E6EDF6"/>
<stop offset="0.265449" stop-color="#E6EDF6"/>
<stop offset="0.290206" stop-color="white"/>
<stop offset="0.307071" stop-color="#FEFEFF"/>
<stop offset="0.381166" stop-color="#E6EDF6"/>
<stop offset="0.448058" stop-color="#E6EDF6"/>
<stop offset="0.526556" stop-color="white"/>
<stop offset="0.57263" stop-color="#E6EDF6"/>
<stop offset="0.598057" stop-color="#F8FBFE"/>
<stop offset="0.613067" stop-color="#F2F6FD"/>
<stop offset="0.660052" stop-color="#E6EDF6"/>
<stop offset="0.725206" stop-color="#F8FAFF"/>
<stop offset="0.763675" stop-color="#E6EDF6"/>
<stop offset="0.817639" stop-color="white"/>
<stop offset="0.826464" stop-color="#E3E8F1"/>
<stop offset="0.868251" stop-color="#E6EDF6"/>
<stop offset="1" stop-color="#E6EDF6"/>
</linearGradient>
<linearGradient id="paint3_linear" x1="60.4206" y1="22.925" x2="94.5132" y2="-23.869" gradientUnits="userSpaceOnUse">
<stop stop-color="#5D71DD"/>
<stop offset="0.393549" stop-color="#7F6CF2"/>
<stop offset="1" stop-color="#BBAFFE"/>
</linearGradient>
<linearGradient id="paint4_linear" x1="159.682" y1="109.119" x2="110.987" y2="134.101" gradientUnits="userSpaceOnUse">
<stop stop-color="#5D71DD"/>
<stop offset="0.393549" stop-color="#7F6CF2"/>
<stop offset="1" stop-color="#BBAFFE"/>
</linearGradient>
<linearGradient id="paint5_linear" x1="74.1149" y1="4.88493" x2="84.8669" y2="64.9452" gradientUnits="userSpaceOnUse">
<stop stop-color="#5D71DD"/>
<stop offset="1" stop-color="#9783FF"/>
</linearGradient>
<clipPath id="clip0">
<rect width="236.941" height="120.706" fill="white" transform="translate(0.342285)"/>
</clipPath>
</defs>
</svg>
