<svg width="30" height="30" viewBox="0 0 30 30" fill="none" xmlns="http://www.w3.org/2000/svg">
<path fill-rule="evenodd" clip-rule="evenodd" d="M14.9999 0C6.71988 0 -0.00012207 6.72 -0.00012207 15C-0.00012207 23.28 6.71988 30 14.9999 30C23.2799 30 29.9999 23.28 29.9999 15C29.9999 6.72 23.2799 0 14.9999 0ZM14.9999 27C8.36988 27 2.99988 21.63 2.99988 15C2.99988 8.37 8.36988 3 14.9999 3C21.6299 3 26.9999 8.37 26.9999 15C26.9999 21.63 21.6299 27 14.9999 27ZM7.49988 15C7.49988 10.8579 10.8577 7.5 14.9999 7.5C19.142 7.5 22.4999 10.8579 22.4999 15C22.4999 19.1421 19.142 22.5 14.9999 22.5C10.8577 22.5 7.49988 19.1421 7.49988 15Z" fill="#5D71DD"/>
</svg>
