<svg width="45" height="48" viewBox="0 0 45 48" fill="none" xmlns="http://www.w3.org/2000/svg">
<path d="M22.7851 1.87025C22.6949 1.59477 22.3052 1.59477 22.215 1.87025L21.6623 3.55733C21.6219 3.68058 21.5069 3.76393 21.3772 3.76393L19.5939 3.76393C19.3027 3.76393 19.1823 4.13707 19.4185 4.30732L20.857 5.34386C20.963 5.42025 21.0073 5.55647 20.9667 5.68065L20.4162 7.36085C20.3258 7.63681 20.6411 7.8674 20.8767 7.69763L22.3247 6.65425C22.4294 6.57877 22.5707 6.57877 22.6754 6.65425L24.1234 7.69763C24.359 7.86741 24.6743 7.63681 24.5838 7.36085L24.0334 5.68065C23.9927 5.55647 24.0371 5.42025 24.1431 5.34386L25.5816 4.30732C25.8178 4.13707 25.6974 3.76393 25.4062 3.76393L23.6229 3.76393C23.4932 3.76393 23.3782 3.68058 23.3378 3.55733L22.7851 1.87025Z" fill="white"/>
<path d="M22.7851 39.8702C22.6949 39.5948 22.3052 39.5948 22.215 39.8702L21.6623 41.5573C21.6219 41.6806 21.5069 41.7639 21.3772 41.7639L19.5939 41.7639C19.3027 41.7639 19.1823 42.1371 19.4185 42.3073L20.857 43.3439C20.963 43.4203 21.0073 43.5565 20.9667 43.6806L20.4162 45.3608C20.3258 45.6368 20.6411 45.8674 20.8767 45.6976L22.3247 44.6542C22.4294 44.5788 22.5707 44.5788 22.6754 44.6542L24.1234 45.6976C24.359 45.8674 24.6743 45.6368 24.5838 45.3608L24.0334 43.6806C23.9927 43.5565 24.0371 43.4203 24.1431 43.3439L25.5816 42.3073C25.8178 42.1371 25.6974 41.7639 25.4062 41.7639L23.6229 41.7639C23.4932 41.7639 23.3782 41.6806 23.3378 41.5573L22.7851 39.8702Z" fill="white"/>
<path d="M13.7109 37.8702C13.6206 37.5948 13.2309 37.5948 13.1407 37.8702L12.588 39.5573C12.5476 39.6806 12.4326 39.7639 12.3029 39.7639L10.5196 39.7639C10.2284 39.7639 10.108 40.1371 10.3443 40.3073L11.7827 41.3439C11.8887 41.4203 11.9331 41.5565 11.8924 41.6806L11.342 43.3608C11.2516 43.6368 11.5668 43.8674 11.8024 43.6976L13.2504 42.6542C13.3551 42.5788 13.4964 42.5788 13.6012 42.6542L15.0491 43.6976C15.2847 43.8674 15.6 43.6368 15.5096 43.3608L14.9591 41.6806C14.9185 41.5565 14.9628 41.4203 15.0688 41.3439L16.5073 40.3073C16.7435 40.1371 16.6231 39.7639 16.3319 39.7639L14.5486 39.7639C14.4189 39.7639 14.3039 39.6806 14.2635 39.5573L13.7109 37.8702Z" fill="white"/>
<path d="M6.65318 30.8702C6.56293 30.5948 6.17324 30.5948 6.08299 30.8702L5.53031 32.5573C5.48993 32.6806 5.37492 32.7639 5.24522 32.7639L3.46196 32.7639C3.17075 32.7639 3.05031 33.1371 3.28657 33.3073L4.72501 34.3439C4.83102 34.4203 4.87539 34.5565 4.83471 34.6806L4.28428 36.3608C4.19388 36.6368 4.50916 36.8674 4.74476 36.6976L6.1927 35.6542C6.29744 35.5788 6.43873 35.5788 6.54347 35.6542L7.99141 36.6976C8.227 36.8674 8.54229 36.6368 8.45189 36.3608L7.90146 34.6806C7.86078 34.5565 7.90515 34.4203 8.01116 34.3439L9.44959 33.3073C9.68586 33.1371 9.56542 32.7639 9.27421 32.7639L7.49095 32.7639C7.36125 32.7639 7.24624 32.6806 7.20586 32.5573L6.65318 30.8702Z" fill="white"/>
<path d="M3.88059 21.8702C3.79035 21.5948 3.40065 21.5948 3.31041 21.8702L2.75772 23.5573C2.71735 23.6806 2.60233 23.7639 2.47263 23.7639L0.689378 23.7639C0.398165 23.7639 0.277728 24.1371 0.513991 24.3073L1.95242 25.3439C2.05844 25.4203 2.10281 25.5565 2.06213 25.6806L1.5117 27.3608C1.42129 27.6368 1.73658 27.8674 1.97218 27.6976L3.42011 26.6542C3.52486 26.5788 3.66614 26.5788 3.77089 26.6542L5.21883 27.6976C5.45442 27.8674 5.76971 27.6368 5.6793 27.3608L5.12887 25.6806C5.08819 25.5565 5.13257 25.4203 5.23858 25.3439L6.67701 24.3073C6.91327 24.1371 6.79284 23.7639 6.50162 23.7639L4.71837 23.7639C4.58867 23.7639 4.47366 23.6806 4.43328 23.5573L3.88059 21.8702Z" fill="white"/>
<path d="M5.64492 11.8702C5.55468 11.5948 5.16498 11.5948 5.07474 11.8702L4.52205 13.5573C4.48167 13.6806 4.36666 13.7639 4.23696 13.7639L2.45371 13.7639C2.16249 13.7639 2.04206 14.1371 2.27832 14.3073L3.71675 15.3439C3.82276 15.4203 3.86714 15.5565 3.82646 15.6806L3.27602 17.3608C3.18562 17.6368 3.50091 17.8674 3.7365 17.6976L5.18444 16.6542C5.28919 16.5788 5.43047 16.5788 5.53522 16.6542L6.98315 17.6976C7.21875 17.8674 7.53404 17.6368 7.44363 17.3608L6.8932 15.6806C6.85252 15.5565 6.8969 15.4203 7.00291 15.3439L8.44134 14.3073C8.6776 14.1371 8.55716 13.7639 8.26595 13.7639L6.4827 13.7639C6.353 13.7639 6.23798 13.6806 6.19761 13.5573L5.64492 11.8702Z" fill="white"/>
<path d="M12.7026 3.87025C12.6124 3.59477 12.2227 3.59477 12.1324 3.87025L11.5797 5.55733C11.5394 5.68058 11.4244 5.76393 11.2947 5.76393L9.5114 5.76393C9.22019 5.76393 9.09975 6.13707 9.33601 6.30732L10.7744 7.34386C10.8805 7.42025 10.9248 7.55647 10.8841 7.68065L10.3337 9.36085C10.2433 9.63681 10.5586 9.8674 10.7942 9.69763L12.2421 8.65425C12.3469 8.57877 12.4882 8.57877 12.5929 8.65425L14.0408 9.69763C14.2764 9.86741 14.5917 9.63681 14.5013 9.36085L13.9509 7.68065C13.9102 7.55647 13.9546 7.42025 14.0606 7.34386L15.499 6.30732C15.7353 6.13707 15.6149 5.76393 15.3236 5.76393L13.5404 5.76393C13.4107 5.76393 13.2957 5.68058 13.2553 5.55733L12.7026 3.87025Z" fill="white"/>
<path d="M32.8675 3.87025C32.7773 3.59477 32.3876 3.59477 32.2974 3.87025L31.7447 5.55733C31.7043 5.68058 31.5893 5.76393 31.4596 5.76393L29.6763 5.76393C29.3851 5.76393 29.2647 6.13707 29.5009 6.30732L30.9394 7.34386C31.0454 7.42025 31.0898 7.55647 31.0491 7.68065L30.4986 9.36085C30.4082 9.63681 30.7235 9.8674 30.9591 9.69763L32.4071 8.65425C32.5118 8.57877 32.6531 8.57877 32.7578 8.65425L34.2058 9.69763C34.4414 9.86741 34.7567 9.63681 34.6663 9.36085L34.1158 7.68065C34.0751 7.55647 34.1195 7.42025 34.2255 7.34386L35.664 6.30732C35.9002 6.13707 35.7798 5.76393 35.4886 5.76393L33.7053 5.76393C33.5756 5.76393 33.4606 5.68058 33.4202 5.55733L32.8675 3.87025Z" fill="white"/>
<path d="M39.9252 10.8702C39.835 10.5948 39.4453 10.5948 39.355 10.8702L38.8024 12.5573C38.762 12.6806 38.647 12.7639 38.5173 12.7639L36.734 12.7639C36.4428 12.7639 36.3224 13.1371 36.5586 13.3073L37.9971 14.3439C38.1031 14.4203 38.1474 14.5565 38.1068 14.6806L37.5563 16.3608C37.4659 16.6368 37.7812 16.8674 38.0168 16.6976L39.4647 15.6542C39.5695 15.5788 39.7108 15.5788 39.8155 15.6542L41.2635 16.6976C41.4991 16.8674 41.8143 16.6368 41.7239 16.3608L41.1735 14.6806C41.1328 14.5565 41.1772 14.4203 41.2832 14.3439L42.7216 13.3073C42.9579 13.1371 42.8375 12.7639 42.5463 12.7639L40.763 12.7639C40.6333 12.7639 40.5183 12.6806 40.4779 12.5573L39.9252 10.8702Z" fill="white"/>
<path d="M41.6896 20.8702C41.5993 20.5948 41.2096 20.5948 41.1194 20.8702L40.5667 22.5573C40.5263 22.6806 40.4113 22.7639 40.2816 22.7639L38.4983 22.7639C38.2071 22.7639 38.0867 23.1371 38.323 23.3073L39.7614 24.3439C39.8674 24.4203 39.9118 24.5565 39.8711 24.6806L39.3207 26.3608C39.2303 26.6368 39.5455 26.8674 39.7811 26.6976L41.2291 25.6542C41.3338 25.5788 41.4751 25.5788 41.5798 25.6542L43.0278 26.6976C43.2634 26.8674 43.5787 26.6368 43.4883 26.3608L42.9378 24.6806C42.8972 24.5565 42.9415 24.4203 43.0475 24.3439L44.486 23.3073C44.7222 23.1371 44.6018 22.7639 44.3106 22.7639L42.5273 22.7639C42.3976 22.7639 42.2826 22.6806 42.2422 22.5573L41.6896 20.8702Z" fill="white"/>
<path d="M40.177 30.8702C40.0868 30.5948 39.6971 30.5948 39.6068 30.8702L39.0541 32.5573C39.0138 32.6806 38.8988 32.7639 38.7691 32.7639L36.9858 32.7639C36.6946 32.7639 36.5741 33.1371 36.8104 33.3073L38.2488 34.3439C38.3549 34.4203 38.3992 34.5565 38.3585 34.6806L37.8081 36.3608C37.7177 36.6368 38.033 36.8674 38.2686 36.6976L39.7165 35.6542C39.8213 35.5788 39.9626 35.5788 40.0673 35.6542L41.5152 36.6976C41.7508 36.8674 42.0661 36.6368 41.9757 36.3608L41.4253 34.6806C41.3846 34.5565 41.429 34.4203 41.535 34.3439L42.9734 33.3073C43.2097 33.1371 43.0893 32.7639 42.798 32.7639L41.0148 32.7639C40.8851 32.7639 40.7701 32.6806 40.7297 32.5573L40.177 30.8702Z" fill="white"/>
<path d="M32.8675 37.8702C32.7773 37.5948 32.3876 37.5948 32.2974 37.8702L31.7447 39.5573C31.7043 39.6806 31.5893 39.7639 31.4596 39.7639L29.6763 39.7639C29.3851 39.7639 29.2647 40.1371 29.5009 40.3073L30.9394 41.3439C31.0454 41.4203 31.0898 41.5565 31.0491 41.6806L30.4986 43.3608C30.4082 43.6368 30.7235 43.8674 30.9591 43.6976L32.4071 42.6542C32.5118 42.5788 32.6531 42.5788 32.7578 42.6542L34.2058 43.6976C34.4414 43.8674 34.7567 43.6368 34.6663 43.3608L34.1158 41.6806C34.0751 41.5565 34.1195 41.4203 34.2255 41.3439L35.664 40.3073C35.9002 40.1371 35.7798 39.7639 35.4886 39.7639L33.7053 39.7639C33.5756 39.7639 33.4606 39.6806 33.4202 39.5573L32.8675 37.8702Z" fill="white"/>
<path fill-rule="evenodd" clip-rule="evenodd" d="M15.4428 21V32H29.5582V21H15.4428ZM14.4345 19C13.8777 19 13.4263 19.4477 13.4263 20V33C13.4263 33.5523 13.8777 34 14.4345 34H30.5664C31.1233 34 31.5747 33.5523 31.5747 33V20C31.5747 19.4477 31.1233 19 30.5664 19H14.4345Z" fill="white"/>
<path fill-rule="evenodd" clip-rule="evenodd" d="M26.5335 19V18C26.5335 15.7909 24.7279 14 22.5005 14C20.2732 14 18.4675 15.7909 18.4675 18V19H26.5335ZM22.5005 12C19.1595 12 16.451 14.6863 16.451 18V21H28.55V18C28.55 14.6863 25.8415 12 22.5005 12Z" fill="white"/>
<path d="M21.4922 24C21.4922 23.4477 21.9436 23 22.5005 23C23.0573 23 23.5087 23.4477 23.5087 24V29C23.5087 29.5523 23.0573 30 22.5005 30C21.9436 30 21.4922 29.5523 21.4922 29V24Z" fill="white"/>
<path d="M24.517 25C24.517 26.1046 23.6141 27 22.5005 27C21.3868 27 20.484 26.1046 20.484 25C20.484 23.8954 21.3868 23 22.5005 23C23.6141 23 24.517 23.8954 24.517 25Z" fill="white"/>
</svg>
